# xmcd
#
# Track frame offsets:
#	150
#	12556
#	24223
#	38290
#	51205
#	64637
#	78247
#	90922
#	104666
#	117173
#	131805
#	146430
#	159698
#	173483
#	187742
#	200618
#	214534
#	227242
#
# Disc length: 3219 seconds
#
# Revision: 0
# Processed by: cddbd v1.5.1PL2 Copyright (c) Steve Scherf et al.
# Submitted via: audiograbber 1.83.01
#
DISCID=e10c9112
DTITLE=Billie Holiday - Easy to love
DYEAR=1900
DGENRE=
TTITLE0=Your Mother´s Son-in-law
TTITLE1=Riffin´ the Scotch
TTITLE2=I wished on the Moon
TTITLE3=A Sunbonnet Blue
TTITLE4=What a Night, what a Moon, what a Girl
TTITLE5=I´m painting the Town red
TTITLE6=It´s too hot for Words
TTITLE7=24 Hours a Day
TTITLE8=Yankee Doodle never went to Town
TTITLE9=Eeny Meeny Miney Mo
TTITLE10=These ´n´ that ´n´ those
TTITLE11=Spreadin´ Rhytm around
TTITLE12=Life begins when you´re in Love
TTITLE13=Guess who?
TTITLE14=Did I remember
TTITLE15=I can´t pretend
TTITLE16=One, two, button your Shoe
TTITLE17=Easy to love
EXTD=
EXTT0=
EXTT1=
EXTT2=
EXTT3=
EXTT4=
EXTT5=
EXTT6=
EXTT7=
EXTT8=
EXTT9=
EXTT10=
EXTT11=
EXTT12=
EXTT13=
EXTT14=
EXTT15=
EXTT16=
EXTT17=
PLAYORDER=
